<?xml version="1.0"?><svg width="766" height="452" xmlns="http://www.w3.org/2000/svg" xmlns:xlink="http://www.w3.org/1999/xlink">
 <defs>
  <linearGradient id="linearGradient3746">
   <stop id="stop3748" offset="0" stop-color="#14dbcb"/>
   <stop id="stop3752" offset="1" stop-color="#1b566c"/>
  </linearGradient>
  <linearGradient id="linearGradient3736">
   <stop offset="0" id="stop3738" stop-color="#ffffff"/>
   <stop offset="1" id="stop3740" stop-opacity="0" stop-color="#ffffff"/>
  </linearGradient>
  <linearGradient id="linearGradient3652">
   <stop offset="0" id="stop3654" stop-color="#18d441"/>
   <stop offset="1" id="stop3656" stop-color="#ebe943"/>
  </linearGradient>
  <linearGradient y2="157.56709" x2="551.76062" y1="157.56709" x1="535.2597" gradientTransform="matrix(1.1354944,0.1489112,0.3544232,-0.6291192,-455.87429,151.10482)" gradientUnits="userSpaceOnUse" id="linearGradient14574" xlink:href="#linearGradient4858"/>
  <linearGradient y2="157.56709" x2="551.76062" y1="157.56709" x1="535.2597" gradientTransform="matrix(-0.9263376,0.2758424,-0.3801472,-0.5116624,805.16307,67.56448)" gradientUnits="userSpaceOnUse" id="linearGradient14572" xlink:href="#linearGradient4858"/>
  <linearGradient y2="157.56709" x2="551.76062" y1="157.56709" x1="535.2597" gradientTransform="matrix(0.9600264,0.1119776,0.2862248,-0.5695488,-358.21557,160.83386)" gradientUnits="userSpaceOnUse" id="linearGradient14570" xlink:href="#linearGradient4858"/>
  <radialGradient r="1.925701" fy="415.23523" fx="9.386741" cy="415.23523" cx="9.386741" gradientTransform="matrix(-3.415704,-6.5543192e-2,-0.5962632,-0.5743696,513.56299,331.6948)" gradientUnits="userSpaceOnUse" id="radialGradient6489" xlink:href="#linearGradient12058"/>
  <radialGradient r="1.925701" fy="415.23523" fx="9.386741" cy="415.23523" cx="9.386741" gradientTransform="matrix(3.803332,-6.5543192e-2,0.6639288,-0.5743696,-85.86605,331.6948)" gradientUnits="userSpaceOnUse" id="radialGradient6487" xlink:href="#linearGradient12058"/>
  <radialGradient r="1.717027" fy="379.90359" fx="96.387573" cy="379.90359" cx="96.387573" gradientTransform="matrix(1.2758672,0,0,-0.4926064,107.28017,276.38048)" gradientUnits="userSpaceOnUse" id="radialGradient6485" xlink:href="#linearGradient8945"/>
  <radialGradient r="336.7695" fy="747.50793" fx="378.62222" cy="747.50793" cx="378.62222" gradientTransform="matrix(-0.1490018,-2.2645928e-7,-9.8014455e-8,5.9276833e-2,535.78705,10.823791)" gradientUnits="userSpaceOnUse" id="radialGradient5329" xlink:href="#linearGradient6382"/>
  <clipPath id="clipPath2341" clipPathUnits="userSpaceOnUse">
   <path id="path2343" clip-rule="evenodd" d="m0,-0.3l841.900024,0l0,595.3l-841.900024,0l0,-595.3z"/>
  </clipPath>
  <radialGradient gradientUnits="userSpaceOnUse" gradientTransform="scale(1.0155474,0.9846906)" xlink:href="#linearGradient827" r="38.948738" id="radialGradient830" fy="49.007641" fx="76.033928" cy="48.244743" cx="75.282188"/>
  <linearGradient id="linearGradient827">
   <stop offset="0" id="stop828" stop-color="#14accb"/>
   <stop id="stop3744" offset="0.5" stop-color="#58d728"/>
   <stop offset="1" id="stop829" stop-color="#1b8e6c"/>
  </linearGradient>
  <linearGradient gradientUnits="userSpaceOnUse" y2="23.741014" y1="15.459764" xlink:href="#linearGradient838" x2="134.75218" x1="126.7053" id="linearGradient837"/>
  <linearGradient id="linearGradient838">
   <stop offset="0" id="stop839" stop-opacity="0.5" stop-color="#ffffff"/>
   <stop offset="1" id="stop840" stop-opacity="0" stop-color="#ffffff"/>
  </linearGradient>
  <linearGradient id="linearGradient8945">
   <stop offset="0" id="stop8946" stop-color="#9a7c5a"/>
   <stop offset="1" id="stop8947" stop-opacity="0" stop-color="#cca478"/>
  </linearGradient>
  <linearGradient id="linearGradient4591">
   <stop offset="0" id="stop4592" stop-color="#9f805e"/>
   <stop offset="1" id="stop4593" stop-color="#ffcd97"/>
  </linearGradient>
  <linearGradient id="linearGradient4858">
   <stop offset="0" id="stop4859" stop-color="#23283e"/>
   <stop offset="1" id="stop4860" stop-color="#3139a3"/>
  </linearGradient>
  <linearGradient id="linearGradient1963">
   <stop offset="0" id="stop1964" stop-color="#a0815e"/>
   <stop offset="1" id="stop1965" stop-opacity="0" stop-color="#ffcd97"/>
  </linearGradient>
  <linearGradient id="linearGradient4202">
   <stop offset="0" id="stop4203" stop-color="#ffffff"/>
   <stop offset="1" id="stop4204" stop-color="#dbdde4"/>
  </linearGradient>
  <linearGradient id="linearGradient12058">
   <stop offset="0" id="stop12059" stop-color="#392e21"/>
   <stop offset="0.5" id="stop12061" stop-opacity="0.498039" stop-color="#b39069"/>
   <stop offset="1" id="stop12060" stop-opacity="0" stop-color="#cca478"/>
  </linearGradient>
  <linearGradient y2="283.50299" x2="631.10602" y1="320.64584" x1="546.13843" gradientUnits="userSpaceOnUse" id="linearGradient5078" xlink:href="#linearGradient11754"/>
  <linearGradient id="linearGradient11754">
   <stop id="stop11756" offset="0" stop-color="#e39827"/>
   <stop id="stop11758" offset="1" stop-opacity="0" stop-color="#e39827"/>
  </linearGradient>
  <radialGradient r="64.649765" fy="588.70215" fx="214.15234" cy="588.70215" cx="214.15234" gradientUnits="userSpaceOnUse" id="radialGradient5080" xlink:href="#linearGradient6382"/>
  <linearGradient id="linearGradient6382">
   <stop id="stop6384" offset="0" stop-color="#e2b9a7"/>
   <stop id="stop6386" offset="1" stop-opacity="0" stop-color="#e2b9a7"/>
  </linearGradient>
  <radialGradient r="64.649765" fy="588.70215" fx="214.15234" cy="588.70215" cx="214.15234" gradientUnits="userSpaceOnUse" id="radialGradient5082" xlink:href="#linearGradient6382"/>
  <radialGradient r="336.7695" fy="747.50793" fx="378.62222" cy="747.50793" cx="378.62222" gradientTransform="matrix(-0.862399,1.364215e-6,-5.672924e-7,-0.35709,705.1459,1042.557)" gradientUnits="userSpaceOnUse" id="radialGradient5084" xlink:href="#linearGradient6382"/>
  <radialGradient r="336.7695" fy="2186.678" fx="378.62122" cy="2186.678" cx="378.62122" gradientTransform="matrix(-1.435374,2.920021e-7,-6.148185e-8,-0.263691,922.0854,843.6629)" gradientUnits="userSpaceOnUse" id="radialGradient5086" xlink:href="#linearGradient8194"/>
  <linearGradient id="linearGradient8194">
   <stop offset="0" id="stop8196" stop-color="#e2b9a7"/>
   <stop offset="1" id="stop8198" stop-opacity="0" stop-color="#e2b9a7"/>
  </linearGradient>
  <radialGradient r="224.85068" fy="222.48161" fx="502.82346" cy="222.48161" cx="502.82346" gradientTransform="matrix(1,0,0,0.474624,0,127.4047)" gradientUnits="userSpaceOnUse" id="radialGradient5088" xlink:href="#linearGradient9972"/>
  <linearGradient id="linearGradient9972">
   <stop id="stop9974" offset="0" stop-color="#e09224"/>
   <stop id="stop9976" offset="1" stop-opacity="0" stop-color="#e09224"/>
  </linearGradient>
  <clipPath clipPathUnits="userSpaceOnUse" id="clipPath38453">
   <path id="path38451" d="m1666.125,329.132874c-9.331909,-0.299988 -13.62085,6.203217 -16.159302,19.391235c-1.298584,6.746796 -4.383057,12.861969 6.032837,18.744843c-4.288086,8.314148 1.110962,5.924316 0.215454,12.065643c8.697388,2.691223 17.893066,4.012207 28.871338,0.430908c-0.375,-2.486572 -0.638672,-3.43042 0.861816,-9.049255c1.38501,-4.899323 -3.536377,-5.659576 -0.861816,-11.634705l1.292725,-9.049255c6.63208,-8.641205 6.493164,-12.546204 -1.077271,-21.545776c-8.049927,-0.731964 -15.122925,-0.90567 -19.175781,0.646362z" stroke-miterlimit="4" stroke-width="0.8" stroke="#000000" fill-rule="evenodd" fill="#3c3c3c"/>
  </clipPath>
  <clipPath clipPathUnits="userSpaceOnUse" id="clipPath8250">
   <path id="path8248" d="m1298.888184,345.820465c-1.205811,-1.990143 -2.204224,-4.187653 -3.124023,-6.463715c4.319214,-3.6492 8.180176,-6.296753 14.543335,-1.508209c-0.02356,1.919281 -0.625244,3.645874 -1.508179,5.278717c-5.380981,-0.850311 -7.481812,0.794281 -9.911133,2.693207z" stroke-miterlimit="4" stroke-width="0.5" stroke="#000000" fill-rule="evenodd" fill="#0a0909"/>
  </clipPath>
  <path d="m249.232895,430.019653c0,0 -3.409027,-24.073975 -1.818146,-37.205261c6.316589,-16.233643 11.07579,-14.997314 9.090744,-37.205261" id="path15737" stroke-width="0.987358px" stroke="#ffffff" fill-rule="evenodd" fill="none"/>
  <path d="m156.632019,419.10318c-5.518051,16.354767 -6.409241,25.111359 1.825119,45.280579" id="path15742" stroke-width="0.949613px" stroke="#ffffff" fill-rule="evenodd" fill="none"/>
  <path d="m385.841614,452.424042c17.452332,-3.566528 37.982086,3.763062 46.896515,17.165222" id="path15752" stroke-width="0.827122px" stroke="#ffffff" fill-rule="evenodd" fill="none"/>
  <path d="m513.262817,267.802704c9.206787,-2.90567 22.134277,-4.343323 30.196777,8.201141" id="path15747" stroke-width="0.827122px" stroke="#ffffff" fill-rule="evenodd" fill="none"/>
  <linearGradient xlink:href="#linearGradient3652" id="linearGradient3805" x1="0.607689" y1="0" x2="0.581523" y2="0.857375"/>
  <linearGradient xlink:href="#linearGradient3746" id="linearGradient3807" x1="0.038159" y1="0.322622" x2="0.910742" y2="0.938274"/>
 </defs>
 <metadata id="metadata7">image/svg+xmlSnakeJan 2008RyglePublic Domain</metadata>
 <g>
  <title>Layer 1</title>
  <g id="layer1">
   <g id="g3774">
    <path id="path3650" d="m698.527344,290.093506c-51.09436,-3.996338 -65.394897,-61.603058 -113.552185,-72.027863c-24.340881,-6.097839 -47.953308,1.550171 -61.256531,23.067139c-15.72641,23.09671 -49.806244,43.169647 -75.994415,26.605988c-29.192596,-16.501678 -42.783783,-58.241074 -79.692535,-61.009552c-34.769257,-4.251465 -52.952576,26.531128 -70.638885,51.074554c-17.57724,26.307129 -60.908875,25.311584 -72.851608,-4.234528c-11.139511,-23.756119 -33.415344,-37.757935 -54.250381,-51.109558c-22.628525,-16.242508 -49.243881,-26.610092 -77.293297,-27.309616c-31.585281,-2.154236 -45.270302,-13.196136 -14.963882,-26.725525c28.983383,-17.837219 64.640587,-24.882759 94.38694,-8.021103c31.692703,11.703979 40.251648,47.983887 59.722336,71.503632c22.573135,25.218079 58.749069,11.000916 80.160507,-9.614105c17.677277,-23.030396 57.21228,-38.196045 81.579865,-15.225647c21.268311,22.870087 44.416046,49.202972 78.378204,46.778351c32.786713,4.298462 49.885803,-28.675995 74.479675,-43.83963c30.754211,-13.653671 67.828735,9.997406 88.878418,31.289093c25.495361,24.542725 63.44104,48.106415 100.745422,37.195343c20.929016,-3.421173 20.560242,9.762756 5.07489,21.706055c-16.32428,12.646973 -31.036743,12.963867 -42.912537,9.896973z" stroke-dashoffset="0" stroke-miterlimit="4" fill="#7f7f7f"/>
    <path d="m360.096069,206.188126c-4.769531,0.373947 -9.381378,1.399002 -13.993958,3.1875c-0.946869,0.367172 -2.448212,1.085007 -3.825012,1.78125c-0.688416,0.34816 -1.33902,0.677933 -1.865875,0.96875c-0.526825,0.290848 -0.809082,0.40715 -1.243896,0.78125c-0.387878,0.333847 -0.541199,0.976028 -0.497559,1.3125c0.04364,0.336502 0.144623,0.5009 0.217682,0.625c0.146088,0.24823 0.268341,0.358719 0.404266,0.5c0.271881,0.282608 0.622162,0.587601 1.119507,1c0.99472,0.824844 2.571991,2.056992 4.913452,3.8125c1.730896,1.297745 3.330811,2.4823 4.540253,3.375c0.604706,0.44635 1.121155,0.82579 1.492706,1.09375c0.18576,0.134018 0.31424,0.228378 0.435364,0.3125c0.121094,0.084152 0.08786,0.093155 0.404266,0.25c0.413666,0.205093 0.561127,0.152908 0.71524,0.15625c0.154114,0.003372 0.277039,0.013199 0.404266,0c0.254486,-0.026352 0.541565,-0.066513 0.83963,-0.125c0.596161,-0.116928 1.285889,-0.309799 2.021362,-0.5c4.176086,-1.080399 9.174652,-1.324692 14.833618,-0.78125c3.737457,0.358932 6.422394,1.028122 11.008575,2.875c0.952484,0.383591 1.803925,0.712601 2.425629,0.96875c0.310852,0.128098 0.566803,0.239334 0.746338,0.3125c0.089783,0.036591 0.158386,0.070541 0.217682,0.09375c0.029663,0.011612 0.054291,0.017349 0.093292,0.03125c0.019501,0.006973 0.037292,0.014938 0.093292,0.03125c0.028015,0.008163 0.05722,0.014084 0.155487,0.03125c0.049133,0.008591 0.279633,0.03125 0.279877,0.03125c0.000122,0 0.34198,-0.062469 0.342072,-0.0625c0.000092,-0.000015 0.71524,-0.468719 0.715271,-0.46875c0.000061,-0.000046 -0.027557,0.056229 -0.062195,0.09375c0.057556,-0.0513 0.16861,-0.151566 0.279877,-0.25c0.222565,-0.196793 0.530731,-0.461136 0.932922,-0.8125c0.804413,-0.702682 1.94101,-1.681503 3.203064,-2.75c1.26532,-1.071182 2.422546,-2.050247 3.296356,-2.78125c0.43692,-0.365494 0.800781,-0.690079 1.057312,-0.90625c0.128296,-0.108078 0.233368,-0.183151 0.310974,-0.25c0.038818,-0.033401 0.060791,-0.06459 0.093292,-0.09375c0.016266,-0.014572 0.038269,-0.008377 0.062225,-0.03125c0.023926,-0.022842 0.036469,-0.017639 0.186584,-0.21875c0.42865,-0.57547 0.271027,-1.15152 0.186584,-1.375c-0.084473,-0.22348 -0.16275,-0.300491 -0.217682,-0.375c-0.109924,-0.149002 -0.170013,-0.235397 -0.24881,-0.3125c-0.157562,-0.15416 -0.348663,-0.29512 -0.559753,-0.46875c-0.422211,-0.347214 -0.973358,-0.77327 -1.617065,-1.25c-1.287415,-0.95343 -2.885223,-2.071487 -4.104889,-2.84375c-2.127747,-1.347122 -5.497711,-2.961533 -8.272003,-4.09375c-0.879944,-0.359085 -1.668793,-0.731552 -2.456726,-0.96875c-6.214386,-1.870956 -12.220825,-2.442856 -19.062897,-1.90625zm-173.929459,6.4375c-0.502548,0.016159 -0.959351,0.297409 -1.201889,0.73996c-0.242554,0.442581 -0.234894,0.980881 0.020172,1.41629c0.079269,0.134964 0.480347,0.841629 1.275009,1.75c4.946045,5.653732 7.71196,9.843201 15.424454,23.53125c0.440048,0.781082 0.693756,1.252945 1.15062,1.71875c0.228439,0.23291 0.556717,0.485611 0.964035,0.59375c0.407272,0.10817 0.810181,0.05957 1.057312,0c0.460876,-0.111008 0.986389,-0.333176 1.803665,-0.625c0.817261,-0.291794 1.80365,-0.636215 2.7677,-1c0.964035,-0.36377 1.898697,-0.74585 2.612213,-1.03125c0.356735,-0.1427 0.670334,-0.243332 0.901825,-0.34375c0.115738,-0.050217 0.214264,-0.108566 0.310989,-0.15625c0.04834,-0.023788 0.085968,-0.052719 0.155487,-0.09375c0.069504,-0.041 0.117889,0.071609 0.466461,-0.40625c0.393158,-0.538879 0.275085,-0.912109 0.248779,-1.09375c-0.026337,-0.181625 -0.064133,-0.265488 -0.093292,-0.34375c-0.058334,-0.156479 -0.099915,-0.240585 -0.155487,-0.34375c-0.111206,-0.206284 -0.238754,-0.431198 -0.404266,-0.6875c-0.331085,-0.512558 -0.783005,-1.145737 -1.306107,-1.875c-1.046204,-1.458481 -2.361237,-3.192123 -3.420746,-4.46875c-2.115707,-2.549301 -5.277954,-5.450363 -9.26712,-8.5c-3.264038,-2.495316 -9.606552,-6.917313 -12.128113,-8.40625c-0.445358,-0.262985 -0.984467,-0.396103 -0.621948,-0.25c-0.176224,-0.079361 -0.366669,-0.121872 -0.559753,-0.125l0,0zm150.326309,2.71875c-0.155273,-0.038376 -0.383423,-0.162003 -0.901825,0.03125c-0.490326,0.182388 -0.630493,0.325974 -0.96405,0.5625c-0.333527,0.236557 -0.729401,0.548172 -1.181702,0.90625c-0.904633,0.716171 -2.014496,1.662582 -3.171967,2.6875c-4.933472,4.368759 -9.868988,9.9104 -15.642151,17.8125l-3.576233,4.90625c-0.252838,0.356216 -0.329651,0.809158 -0.208405,1.229446c0.121216,0.420227 0.427124,0.761703 0.830353,0.926804l3.85611,1.562515c-0.000122,0.010437 -0.000122,0.020813 0,0.03125c2.168213,0.869568 5.767578,2.245544 7.961029,3.125c1.107178,0.443848 2.135925,0.830139 2.89209,1.125c0.378052,0.1474 0.692963,0.290588 0.932922,0.375c0.119995,0.042236 0.215637,0.059753 0.342072,0.09375c0.063232,0.017029 0.096832,0.045471 0.279877,0.0625c0.091553,0.008545 0.210144,0.040894 0.559753,-0.0625c0.087402,-0.025879 0.310425,-0.124634 0.311005,-0.125c0.000549,-0.000366 0.403931,-0.343323 0.404266,-0.34375c0.000336,-0.000427 0.279755,-0.593201 0.279877,-0.59375c0,-0.000061 -0.000305,-0.050232 0,-0.0625c0.000061,-0.000183 0.021301,-0.06134 0.062195,-0.15625c0.081787,-0.189758 0.211304,-0.505615 0.404266,-0.875c0.385895,-0.738831 0.970612,-1.750854 1.617065,-2.84375c1.292938,-2.185745 2.915344,-4.739563 4.104919,-6.375015c3.902771,-5.365402 7.487091,-8.741867 12.03479,-11.34375l1.741486,-0.90625c0.443054,-0.226181 0.736725,-0.668137 0.774841,-1.166061c0.038116,-0.497925 -0.184845,-0.979797 -0.588257,-1.271439l-6.281738,-4.65625c-2.105713,-1.563309 -3.6716,-2.688919 -4.757935,-3.4375c-0.543182,-0.374252 -0.967224,-0.643082 -1.306122,-0.84375c-0.169434,-0.100327 -0.290527,-0.203568 -0.466461,-0.28125c-0.087982,-0.038834 -0.186798,-0.055344 -0.342072,-0.09375zm228.692505,0.78125c-5.672302,0.365707 -12.279724,2.162674 -17.69458,5c-0.910278,0.47699 -2.60376,1.604599 -4.198181,2.6875c-0.797241,0.541489 -1.524231,1.063065 -2.083557,1.46875c-0.279724,0.20285 -0.531372,0.352371 -0.715271,0.5c-0.09198,0.073837 -0.149963,0.154373 -0.248779,0.25c-0.049438,0.047836 -0.117737,0.081436 -0.217651,0.21875c-0.049988,0.06868 -0.107849,0.15657 -0.186584,0.375c-0.019775,0.054611 -0.045898,0.108994 -0.062195,0.1875c-0.016357,0.078537 -0.031128,0.280502 -0.031128,0.28125c0,0.000778 0.062012,0.405624 0.062195,0.40625c0.000183,0.000641 0.186218,0.405746 0.186584,0.40625c0.000061,0.000137 0.186401,0.249832 0.186584,0.25c0.000183,0.000198 0.071533,0.044479 0.093323,0.0625c0.043396,0.036118 0.075012,0.049454 0.093262,0.0625c0.036438,0.026108 0.047058,0.052841 0.062195,0.0625c0.030212,0.019363 0.041504,0.018845 0.062195,0.03125c0.041382,0.024811 0.098206,0.06073 0.155518,0.09375c0.114502,0.066071 0.263062,0.166519 0.466431,0.28125c0.406799,0.229538 0.992493,0.537949 1.710388,0.9375c1.435852,0.799179 3.406799,1.892349 5.597595,3.09375c3.76062,2.062393 5.784668,3.157974 6.996948,3.75c0.606201,0.296021 0.99231,0.478104 1.399414,0.59375c0.407104,0.115677 0.935181,0.115433 1.21283,0.0625c0.340393,-0.064865 0.729797,-0.171066 1.368286,-0.34375c0.638489,-0.172653 1.414368,-0.401291 2.207947,-0.625c7.829407,-2.206467 17.739563,-2.5448 26.650757,-0.875c0.678284,0.12709 1.323425,0.24794 1.834717,0.34375c0.255676,0.047928 0.473816,0.095352 0.653076,0.125c0.089661,0.014847 0.167847,0.021011 0.248779,0.03125c0.080872,0.010269 0.069641,0.053848 0.373169,0.03125c0.000977,-0.000046 0.280518,-0.061447 0.373169,-0.09375c0.092651,-0.032272 0.161987,-0.063339 0.217712,-0.09375c0.111328,-0.06073 0.168213,-0.116196 0.217651,-0.15625c0.098816,-0.080063 0.147827,-0.113693 0.186584,-0.15625c0.077515,-0.085007 0.109436,-0.156845 0.155518,-0.21875c0.09198,-0.123779 0.203186,-0.242355 0.310974,-0.40625c0.215393,-0.327744 0.486389,-0.786179 0.808533,-1.3125c0.644287,-1.052536 1.454712,-2.414566 2.270142,-3.8125c0.815369,-1.397903 1.640503,-2.827957 2.239014,-3.90625c0.299255,-0.539139 0.536316,-0.99527 0.715271,-1.34375c0.089417,-0.17421 0.155212,-0.296158 0.217651,-0.4375c0.03125,-0.070633 0.05719,-0.138931 0.093323,-0.25c0.018066,-0.055496 0.041138,-0.120499 0.062195,-0.25c0.010498,-0.064743 0.034546,-0.14888 0.031067,-0.28125c-0.001709,-0.066177 -0.011047,-0.149063 -0.031067,-0.25c-0.020081,-0.100906 -0.123962,-0.37413 -0.12439,-0.375c-0.232422,-0.460892 -0.369873,-0.461639 -0.466492,-0.53125c-0.096619,-0.069595 -0.184326,-0.121048 -0.248779,-0.15625c-0.128906,-0.070358 -0.237,-0.127762 -0.373169,-0.1875c-0.272278,-0.1194 -0.619873,-0.253189 -1.026245,-0.40625c-0.812622,-0.306076 -1.884583,-0.670578 -3.047546,-1.0625c-2.325806,-0.783798 -4.965759,-1.606461 -6.530518,-2c-7.3172,-1.840225 -14.964111,-2.531265 -22.234863,-2.0625zm-166.310516,4.6875c1.433289,-1.683151 -6.933258,5.388611 -1.119507,0.5625c-0.269928,0.205231 -0.622131,0.485947 -1.026215,0.8125c-0.808197,0.653122 -1.835724,1.511276 -2.860992,2.375c-1.025299,0.863754 -2.038513,1.737991 -2.798798,2.40625c-0.380157,0.334152 -0.697968,0.62323 -0.932922,0.84375c-0.117493,0.11026 -0.217346,0.1819 -0.310974,0.28125c-0.046844,0.049698 -0.080963,0.08786 -0.155518,0.1875c-0.037262,0.04985 -0.082367,0.129929 -0.155487,0.28125c-0.03656,0.075699 -0.08844,0.154404 -0.12439,0.34375c-0.017944,0.094711 -0.031158,0.374222 -0.031097,0.375c0.000061,0.000809 0.155182,0.561905 0.155487,0.5625c0.192322,0.38121 0.232147,0.32756 0.279877,0.375c0.04776,0.04747 0.092957,0.066574 0.12442,0.09375c0.062927,0.054367 0.117767,0.102737 0.186584,0.15625c0.137665,0.107071 0.316833,0.255341 0.528656,0.40625c0.423615,0.301865 0.996277,0.685989 1.648163,1.09375c6.436432,4.026199 12.590332,9.536514 20.866577,18.875015l3.203064,3.75c0.429779,0.508484 1.152191,0.651123 1.741455,0.34375l3.234161,-1.65625c0.889069,-0.446594 1.688934,-0.873108 2.301239,-1.1875c0.306152,-0.157166 0.554932,-0.271912 0.746338,-0.375c0.095734,-0.051514 0.172577,-0.111633 0.248779,-0.15625c0.038116,-0.022339 0.071014,-0.026978 0.12439,-0.0625c0.053406,-0.035522 0.064056,0.091187 0.404266,-0.375c0.000366,-0.000488 0.186371,-0.31189 0.186615,-0.3125c0.000214,-0.00061 0.047089,-0.198059 0.062195,-0.28125c0.030182,-0.166382 0.039673,-0.277588 0.031097,-0.375c-0.017242,-0.194885 -0.065826,-0.297791 -0.093292,-0.375c-0.054993,-0.154419 -0.09024,-0.221252 -0.12442,-0.28125c-0.068329,-0.119995 -0.123199,-0.192566 -0.186584,-0.28125c-0.12674,-0.177368 -0.271759,-0.384338 -0.466461,-0.625c-0.389343,-0.481323 -0.941437,-1.122803 -1.554871,-1.8125c-1.159973,-1.304077 -4.669525,-5.435181 -7.71225,-9.000015c-4.094574,-4.796982 -7.739197,-8.948013 -10.448822,-11.90625c-1.354797,-1.47908 -2.485596,-2.641159 -3.327454,-3.46875c-0.420929,-0.413773 -0.750305,-0.747879 -1.057312,-1c-0.153503,-0.126053 -0.318909,-0.235031 -0.497559,-0.34375c-0.17868,-0.108688 -0.283081,-0.357712 -1.08844,-0.25zm203.721039,3.28125c-0.490845,0.018723 -0.937561,0.29039 -1.181702,0.71875l-0.715271,1.21875c-0.010498,0.010269 -0.020874,0.02066 -0.031067,0.03125c-0.332336,0.597488 -1.72522,2.93808 -2.985413,5.125c-0.000122,0.010422 -0.000122,0.020859 0,0.03125l-2.176819,3.96875c-0.19043,0.357132 -0.221252,0.77858 -0.0849,1.15979c0.136353,0.381302 0.427124,0.6866 0.800171,0.84021l3.576233,1.46875c-0.000122,0.010452 -0.000122,0.020828 0,0.03125c4.5448,1.827103 7.927063,3.61969 11.9104,6.343765c5.744141,3.92804 11.770386,9.208618 17.414734,15.562469c0.407593,0.458862 0.802979,0.89032 1.119507,1.21875c0.158203,0.164246 0.294617,0.310852 0.435364,0.4375c0.070313,0.063354 0.138245,0.109253 0.248779,0.1875c0.055298,0.039124 0.097412,0.097717 0.217712,0.15625c0.120239,0.058533 0.27594,0.190857 0.746338,0.15625c0.550293,-0.040405 0.466064,-0.128296 0.528625,-0.15625c0.062561,-0.027954 0.109802,-0.038818 0.155518,-0.0625c0.091492,-0.047302 0.193726,-0.090332 0.310974,-0.15625c0.234375,-0.131836 0.525635,-0.311462 0.901855,-0.53125c0.75238,-0.439575 1.770569,-1.034241 2.89209,-1.6875l4.167053,-2.4375c0.392212,-0.223389 0.656006,-0.620239 0.711121,-1.069885c0.055237,-0.449585 -0.104736,-0.898911 -0.431213,-1.211349l-7.307983,-7.062485c-9.590149,-9.357925 -14.782532,-13.863037 -20.990967,-18.250015c-2.261414,-1.597946 -6.07959,-4.00589 -8.30304,-5.21875c-0.010254,-0.01059 -0.02063,-0.020981 -0.031128,-0.03125l-1.21283,-0.625c-0.211487,-0.108597 -0.446716,-0.162308 -0.684143,-0.15625zm-64.807617,4.46875c-0.798523,0.106705 -0.924011,0.347092 -1.243896,0.59375c-0.319885,0.246689 -0.649109,0.550674 -1.057312,0.9375c-0.816406,0.773697 -1.856506,1.85762 -3.109802,3.21875c-2.50647,2.72229 -5.853638,6.5755 -9.702454,11.1875c-6.132935,7.348953 -10.067749,11.79631 -12.501251,14.062485c-0.487793,0.454285 -0.914001,0.897888 -1.243927,1.25c-0.164948,0.176086 -0.314911,0.31897 -0.435364,0.46875c-0.060181,0.07489 -0.111023,0.159424 -0.186584,0.28125c-0.037781,0.060913 -0.095703,0.123108 -0.155487,0.28125c-0.029877,0.079102 -0.07312,0.197632 -0.093292,0.375c-0.010071,0.088684 -0.016083,0.175415 0,0.3125c0.008087,0.068542 0.039246,0.137512 0.062195,0.21875c0.02298,0.081238 0.093048,0.280701 0.093292,0.28125c0.000549,0.001099 0.148438,0.203125 0.186584,0.25c0.038147,0.046875 0.04071,0.071472 0.062195,0.09375c0.042999,0.044556 0.07016,0.072998 0.093292,0.09375c0.046295,0.041504 0.087097,0.063538 0.12439,0.09375c0.074646,0.060425 0.175964,0.139954 0.279877,0.21875c0.207916,0.157593 0.463318,0.343201 0.808563,0.59375c0.690521,0.501038 1.64093,1.190674 2.674377,1.90625l3.731689,2.5625c0.540833,0.362732 1.257446,0.311279 1.741516,-0.125l0.466431,-0.40625l0.062195,-0.0625c0.226379,-0.183777 0.38385,-0.311279 0.715271,-0.625c0.362061,-0.342773 0.829224,-0.824463 1.399414,-1.375c1.14032,-1.101135 2.644714,-2.539124 4.229248,-4.09375c9.862122,-9.676117 14.057129,-13.203094 19.74707,-16.999985c2.346069,-1.565475 6.271362,-3.84668 7.525635,-4.375c0.402954,-0.169724 0.714417,-0.323715 1.057312,-0.59375c0.171448,-0.13501 0.374573,-0.281723 0.559753,-0.6875c0.185181,-0.405746 0.133301,-1.25 -0.217651,-1.65625c-0.233948,-0.27063 -0.274841,-0.233994 -0.342102,-0.28125c-0.067261,-0.047226 -0.115601,-0.111389 -0.186584,-0.15625c-0.142029,-0.089706 -0.317261,-0.188339 -0.528687,-0.3125c-0.422913,-0.248276 -1.00354,-0.55864 -1.67926,-0.9375c-1.351318,-0.757675 -3.115784,-1.728867 -4.882324,-2.6875c-1.766541,-0.958572 -3.533936,-1.917709 -4.882324,-2.625c-0.674255,-0.353622 -1.256958,-0.63353 -1.679321,-0.84375c-0.211182,-0.105087 -0.381409,-0.183456 -0.528625,-0.25c-0.073608,-0.033249 -0.133179,-0.061813 -0.217712,-0.09375c-0.042175,-0.015945 -0.074768,-0.040298 -0.155457,-0.0625c-0.080688,-0.022171 -0.119202,-0.094254 -0.590881,-0.03125zm-322.887436,11.6875c-0.311142,0.062149 -0.41478,0.114517 -0.746353,0.21875c-0.331604,0.104263 -0.777176,0.229446 -1.306107,0.40625c-1.057892,0.353653 -2.47821,0.859818 -4.073792,1.4375l-3.327454,1.25c-0.390793,0.151138 -0.695572,0.467361 -0.833359,0.8647c-0.137787,0.397278 -0.094574,0.835388 0.118103,1.197815l2.145752,3.625c4.806198,8.305817 9.187119,14.582428 13.993958,20.031219c0.724976,0.821716 1.394577,1.588623 1.896957,2.15625c0.25119,0.283813 0.457367,0.509094 0.621964,0.6875c0.08226,0.089172 0.146683,0.179077 0.217682,0.25c0.035507,0.035461 0.071671,0.078552 0.12439,0.125c0.052689,0.046448 0.01619,0.08075 0.404266,0.25c0.482468,0.210754 0.696182,0.119019 0.839645,0.09375c0.143463,-0.025269 0.211151,-0.037476 0.279877,-0.0625c0.137421,-0.050049 0.216354,-0.107849 0.310974,-0.15625c0.189194,-0.096802 0.392578,-0.203369 0.621964,-0.34375c0.45871,-0.280701 1.048935,-0.661194 1.679276,-1.09375c1.217484,-0.835571 2.949509,-1.992249 3.700623,-2.5l1.275009,-0.8125c0.358917,-0.227722 0.598053,-0.604492 0.652191,-1.027588c0.054123,-0.423035 -0.082382,-0.848328 -0.372314,-1.159912l-0.932938,-1c-2.672699,-2.924377 -6.124725,-7.976807 -11.848221,-17.468719c-1.052338,-1.745239 -2.013428,-3.314026 -2.736603,-4.468765c-0.361603,-0.577377 -0.682327,-1.040146 -0.901825,-1.375c-0.109787,-0.167419 -0.169922,-0.32634 -0.248795,-0.4375c-0.039444,-0.055588 -0.09845,-0.086533 -0.155487,-0.15625c-0.028503,-0.034836 -0.040985,-0.076584 -0.12439,-0.15625c-0.041687,-0.03978 -0.085754,-0.103149 -0.217682,-0.1875c-0.065964,-0.04216 -0.310272,-0.124741 -0.310974,-0.125c-0.000366,-0.000107 -0.310669,-0.062424 -0.310974,-0.0625c-0.000305,-0.000046 -0.435135,-0.000046 -0.435364,0zm95.158981,4.5c-0.417511,0.0224 -0.804138,0.228104 -1.057343,0.562515l-5.068909,6.71875c-4.619598,6.031708 -6.606415,8.247772 -9.889069,11.781219c-0.010376,-0.000122 -0.020752,-0.000122 -0.031097,0l-0.995148,1.09375c-0.303802,0.329834 -0.43576,0.783997 -0.356262,1.226318c0.079468,0.442322 0.361115,0.821411 0.760559,1.023682l7.805511,4.09375c5.094116,2.678223 7.537598,3.971741 8.925049,4.59375c0.693695,0.311035 1.110046,0.498779 1.772552,0.5c0.331268,0.00061 0.71701,-0.106079 0.96405,-0.25c0.247009,-0.143921 0.361328,-0.246277 0.404266,-0.28125c0.23291,-0.189514 0.329651,-0.32019 0.528656,-0.53125c0.199005,-0.21106 0.437286,-0.470642 0.71524,-0.78125c0.555939,-0.621216 1.248383,-1.409851 1.959167,-2.25c3.290283,-3.889343 5.645111,-7.722351 8.769531,-14.09375l2.394531,-4.843719c0.17807,-0.358154 0.198639,-0.774841 0.056824,-1.148987c-0.141815,-0.374146 -0.433105,-0.671448 -0.803162,-0.819763l-6.032959,-2.40625c-3.294861,-1.358337 -6.94458,-2.870178 -8.209778,-3.34375l-2.05246,-0.75c-0.178436,-0.068665 -0.368805,-0.100525 -0.559753,-0.093765zm117.082855,7.500015c-0.25293,-0.017883 -0.693268,0.00116 -0.96402,0.15625c-0.159241,0.091187 -1.613586,0.923828 -3.203064,1.71875c-0.844421,0.422363 -1.630859,0.841858 -2.207947,1.187485c-0.288544,0.172791 -0.513824,0.325928 -0.71524,0.46875c-0.100708,0.071411 -0.194977,0.144531 -0.310974,0.249985c-0.058014,0.052734 -0.115845,0.114014 -0.217682,0.25c-0.101868,0.135986 -0.417236,0.34137 -0.279877,1.125c0.091339,0.52533 0.171265,0.489258 0.217682,0.5625c0.046387,0.073242 0.088318,0.108215 0.12439,0.15625c0.072174,0.096069 0.157166,0.203064 0.248779,0.3125c0.183228,0.218872 0.420837,0.482483 0.71524,0.8125c0.588837,0.660034 1.380219,1.544922 2.239044,2.46875c1.717651,1.847656 3.670837,3.905212 4.789032,5c5.500763,5.385498 12.341553,10.400513 18.90741,14c3.004395,1.647034 7.965912,3.509521 11.692749,4.46875l1.461578,0.4375c0.388824,0.114685 0.807892,0.057556 1.152161,-0.157227c0.344299,-0.214722 0.581268,-0.566711 0.65152,-0.967773l0.870728,-5.03125c0.256531,-1.378967 0.468292,-2.636108 0.621948,-3.59375c0.076843,-0.478821 0.142792,-0.892761 0.186584,-1.1875c0.043793,-0.294739 0.073883,-0.380554 0.093292,-0.59375c0.021484,-0.237 -0.060272,-0.828613 -0.373169,-1.21875c-0.312897,-0.390137 -0.604401,-0.516907 -0.870728,-0.625c-0.532715,-0.216187 -1.147034,-0.380859 -2.301239,-0.65625c-1.246368,-0.297363 -3.792999,-1.105042 -5.628693,-1.75c-7.973938,-2.801636 -16.529022,-8.3255 -24.287292,-15.937469c-0.491486,-0.482239 -0.864563,-0.822449 -1.212799,-1.09375c-0.339081,-0.26416 -0.679352,-0.542786 -1.399414,-0.5625zm216.502228,6.281219c-0.262939,-0.011536 -0.476318,0.049194 -0.653076,0.09375c-0.353516,0.089111 -0.660828,0.21759 -1.057312,0.40625c-0.79303,0.37738 -1.889099,1.021301 -3.545166,2c-1.184082,0.699707 -2.278015,1.359253 -3.078674,1.875c-0.40033,0.257874 -0.73645,0.464355 -0.995117,0.65625c-0.129272,0.095947 -0.238464,0.183533 -0.373169,0.3125c-0.067322,0.064514 -0.129822,0.131409 -0.248779,0.3125c-0.059448,0.090576 -0.124512,0.195313 -0.186584,0.4375c-0.062073,0.242188 -0.081299,0.688904 0.155518,1.09375c0.171387,0.293091 0.163086,0.269531 0.248779,0.375c0.085632,0.105469 0.179626,0.219788 0.310974,0.375c0.262634,0.310425 0.631104,0.727783 1.057312,1.21875c0.852356,0.981934 1.991516,2.25708 3.171936,3.59375c2.360962,2.67334 4.901489,5.520508 5.877502,6.5625c7.263184,7.7547 11.089783,11.07489 16.699463,13.90625c0.686157,0.346252 1.882446,0.874512 2.549988,1.1875c0.612,0.286926 0.93988,0.565735 1.741455,0.5625c0.400818,-0.001648 0.831482,-0.146729 1.08844,-0.3125c0.257019,-0.165771 0.400452,-0.326416 0.559753,-0.46875c0.29248,-0.261353 0.409607,-0.415771 0.653076,-0.71875c0.243408,-0.302979 0.532043,-0.679138 0.870728,-1.125c0.677307,-0.891785 1.535889,-2.043396 2.394531,-3.21875l3.140869,-4.28125c0.239746,-0.332336 0.325989,-0.752075 0.236694,-1.152588c-0.089233,-0.400574 -0.345276,-0.743286 -0.703186,-0.941162l-2.145752,-1.15625c-7.147766,-4.072693 -14.292419,-9.545959 -22.639099,-17.34375c-1.039978,-0.971558 -2.023132,-1.867615 -2.7677,-2.5625c-0.372314,-0.347473 -0.664673,-0.657471 -0.901855,-0.875c-0.237183,-0.217529 -0.255432,-0.246643 -0.559753,-0.46875c-0.324402,-0.236755 -0.638855,-0.332214 -0.901794,-0.34375zm-137.949432,4.28125c-0.224243,0.075928 -0.363861,0.155334 -0.528656,0.25c-0.329437,0.189392 -0.666656,0.419739 -0.995117,0.6875c-3.039642,2.479309 -10.114807,6.137939 -14.647034,7.5c-5.828613,1.751709 -13.353943,2.509277 -19.560455,1.96875c-0.42804,-0.037292 -0.868134,-0.080505 -1.243896,-0.125c-0.375763,-0.044495 -0.585327,-0.091614 -0.96402,-0.09375c-0.47229,-0.002686 -0.837708,0.243774 -1.057343,0.4375c-0.219604,0.193726 -0.365784,0.358704 -0.466461,0.53125c-0.201324,0.345154 -0.322571,0.698486 -0.466461,1.15625c-0.287781,0.915588 -0.586761,2.258423 -0.96402,4.28125c-0.27002,1.447693 -0.48999,2.77417 -0.653046,3.75c-0.081543,0.487915 -0.140442,0.882996 -0.186615,1.15625c-0.006622,0.039429 0.005859,0.059692 0,0.09375c0.023895,-0.052246 0.155762,-0.250305 0.155518,-0.25c-0.169586,0.232422 -0.336212,0.648865 -0.279907,1.0625c0.056305,0.413635 0.278931,0.717163 0.435394,0.875c0.312897,0.315674 0.495392,0.347595 0.653046,0.40625c0.315308,0.117249 0.55188,0.167236 0.870728,0.21875c0.637665,0.103088 1.471344,0.156433 2.456726,0.21875c1.970795,0.124634 4.511627,0.195923 6.810394,0.125c14.591248,-0.449951 28.893463,-5.883545 37.597076,-14.40625c0.728394,-0.713196 1.65387,-1.622437 1.865906,-1.8125l0.466431,-0.375c0.341431,-0.289612 0.527771,-0.72345 0.503296,-1.171753c-0.024414,-0.448303 -0.256836,-0.85907 -0.627686,-1.109497l-3.700592,-2.5625c-1.034485,-0.707947 -2.002869,-1.35907 -2.736603,-1.84375c-0.366791,-0.24231 -0.668457,-0.444763 -0.901825,-0.59375c-0.116669,-0.074463 -0.227753,-0.136841 -0.310974,-0.1875c-0.083221,-0.050659 -0.068756,-0.050476 -0.310974,-0.15625c-0.679901,-0.297058 -0.988586,-0.107178 -1.21283,-0.03125zm-214.574158,4.4375c-1.141968,0.392578 -0.437714,0.11322 -1.306122,0.6875c-0.389709,0.281677 -0.878418,0.665039 -1.399384,1.09375c-4.766449,3.922607 -9.281555,6.331543 -14.958008,7.90625l-2.487793,0.65625c-0.401184,0.102356 -0.73819,0.375061 -0.923279,0.74707c-0.185089,0.372009 -0.199982,0.806519 -0.040771,1.19043l2.643311,6.34375c0.738037,1.738525 1.398682,3.3078 1.896973,4.46875c0.249146,0.580505 0.464905,1.059998 0.621948,1.40625c0.078491,0.173096 0.12439,0.314331 0.186584,0.4375c0.031067,0.061584 0.076996,0.108582 0.12439,0.1875c0.023682,0.039429 0.033783,0.109741 0.093292,0.1875c0.029755,0.038879 0.083862,0.085632 0.155487,0.15625c0.035797,0.035278 0.058563,0.075439 0.12439,0.125c0.065826,0.049561 0.310211,0.155945 0.310974,0.15625c0.454163,0.198242 0.452087,0.121216 0.528656,0.125c0.076599,0.003784 0.134705,0.001221 0.186584,0c0.10379,-0.002441 0.191101,-0.0224 0.311005,-0.03125c0.239777,-0.017761 0.537964,-0.022583 0.901825,-0.0625c0.727661,-0.079895 1.699554,-0.222778 2.705505,-0.375c8.203247,-1.241577 16.385406,-4.564148 23.603149,-9.5625c1.371765,-0.950012 2.71933,-1.931885 3.73172,-2.71875c0.506195,-0.393433 0.92099,-0.739075 1.243927,-1.03125c0.161438,-0.146057 0.291534,-0.267761 0.435364,-0.4375c0.071899,-0.0849 0.149109,-0.184204 0.248779,-0.375c0.09967,-0.190796 0.405304,-0.633118 0.031097,-1.375c-0.000336,-0.000671 -0.166016,-0.255737 -0.217682,-0.3125c-0.051697,-0.056763 -0.095673,-0.099731 -0.12439,-0.125c-0.057434,-0.050537 -0.097321,-0.074097 -0.12439,-0.09375c-0.05423,-0.039307 -0.092102,-0.042175 -0.12439,-0.0625c-0.064636,-0.04071 -0.112488,-0.082275 -0.186584,-0.125c-0.148193,-0.085449 -0.346252,-0.178467 -0.590881,-0.3125c-0.489197,-0.268066 -1.172424,-0.65802 -1.990234,-1.09375c-1.635681,-0.871399 -3.797455,-2.019714 -5.970764,-3.15625c-2.173309,-1.136536 -4.352966,-2.247437 -6.001862,-3.09375c-0.824463,-0.423157 -1.522125,-0.782349 -2.021362,-1.03125c-0.249634,-0.124451 -0.43634,-0.208313 -0.590851,-0.28125c-0.07724,-0.036499 -0.147766,-0.064026 -0.217682,-0.09375c-0.034943,-0.014893 -0.061981,-0.040588 -0.12439,-0.0625c-0.031219,-0.010986 -0.082458,-0.013 -0.155487,-0.03125c-0.036499,-0.009094 -0.080872,-0.021118 -0.155487,-0.03125c-0.074615,-0.010132 -0.372406,-0.000122 -0.373169,0zm-56.224655,1.46875c-0.339645,0.034302 -1.188339,0.565674 -0.90184,0.40625c-0.257126,0.152527 -0.560608,0.337463 -0.901825,0.5625c-0.68248,0.450134 -1.517014,1.042725 -2.332336,1.625c-0.815308,0.582275 -1.60881,1.159851 -2.207932,1.625c-0.299561,0.232544 -0.543961,0.415283 -0.746338,0.59375c-0.101227,0.089233 -0.169556,0.189697 -0.279892,0.3125c-0.055176,0.061401 -0.119675,0.112427 -0.217682,0.28125c-0.049011,0.084412 -0.135254,0.182434 -0.186584,0.40625c-0.051315,0.223816 -0.066208,0.671326 0.186584,1.09375c0.155762,0.260742 0.191269,0.251099 0.248779,0.3125c0.057526,0.061401 0.091293,0.125183 0.155487,0.1875c0.128342,0.124573 0.308701,0.267334 0.497574,0.4375c0.377701,0.340271 0.873016,0.753967 1.430496,1.21875c2.432724,2.028442 6.09375,4.623413 9.20491,6.4375c1.656326,0.96582 3.968918,2.01709 7.929916,3.6875c6.113556,2.578308 8.745285,3.334595 14.08728,4.375c1.427917,0.278137 3.956818,0.596252 6.219513,0.84375c1.131378,0.123718 2.182373,0.224182 2.985382,0.28125c0.40152,0.028503 0.745697,0.059448 1.026245,0.0625c0.140259,0.001526 0.281555,0.014221 0.435364,0c0.076874,-0.007141 0.137115,-0.025635 0.279877,-0.0625c0.142731,-0.036865 0.414673,0.019958 0.83963,-0.5625c0.000336,-0.000427 0.248596,-0.561707 0.248779,-0.5625c0.000153,-0.000793 0.030243,-0.213867 0.031097,-0.28125c0.001648,-0.134705 -0.022736,-0.197327 -0.031097,-0.25c-0.016724,-0.105286 -0.019348,-0.145386 -0.031097,-0.1875c-0.023529,-0.084229 -0.040253,-0.125305 -0.062195,-0.1875c-0.043884,-0.124329 -0.117615,-0.26239 -0.186584,-0.4375c-0.13797,-0.350159 -0.323578,-0.839355 -0.559753,-1.40625c-0.472351,-1.133728 -1.09375,-2.623413 -1.741486,-4.125c-0.647736,-1.501587 -1.319641,-3.000244 -1.834747,-4.15625c-0.257568,-0.578003 -0.483185,-1.07312 -0.653046,-1.4375c-0.084961,-0.18219 -0.155548,-0.344666 -0.217682,-0.46875c-0.031067,-0.062073 -0.059998,-0.09613 -0.093292,-0.15625c-0.033325,-0.06012 0.0112,-0.083801 -0.186584,-0.3125c-0.562195,-0.650574 -0.755188,-0.469421 -0.901855,-0.5c-0.146667,-0.030579 -0.256683,-0.05249 -0.373169,-0.0625c-0.233002,-0.019958 -0.478668,-0.027588 -0.777435,-0.03125c-0.597534,-0.007324 -1.35144,0.009827 -2.176849,0.03125c-3.329163,0.086365 -7.749557,-0.364868 -10.790894,-1.0625c-4.702286,-1.078552 -9.694962,-3.443909 -13.776291,-6.5625c-0.640625,-0.489563 -1.259247,-0.95282 -1.74147,-1.28125c-0.241135,-0.164185 -0.427536,-0.293396 -0.621948,-0.40625c-0.097244,-0.056458 -0.214706,-0.099976 -0.342072,-0.15625c-0.127411,-0.056274 -0.09375,-0.2948 -0.932938,-0.125zm442.52034,14.65625c-0.411621,0.038818 -0.786133,0.255493 -1.026245,0.59375l-1.430481,1.96875c-0.772766,1.058289 -2.40033,3.195557 -3.545166,4.59375c-0.010376,-0.000122 -0.020691,-0.000122 -0.031067,0l-2.083557,2.59375c-0.31897,0.395447 -0.404907,0.931458 -0.225647,1.407593c0.17926,0.476135 0.596741,0.82074 1.096375,0.904907l0.715271,0.125c0.042664,0.011414 0.081726,0.019897 0.12439,0.03125c11.230713,2.991577 21.176392,3.590942 32.559265,1.90625c1.917175,-0.283752 4.34491,-0.736511 6.375061,-1.1875c1.015015,-0.225464 1.917419,-0.465149 2.612183,-0.65625c0.347351,-0.095581 0.648743,-0.159912 0.901855,-0.25c0.126587,-0.045044 0.238159,-0.090942 0.373169,-0.15625c0.13501,-0.065308 0.290344,-0.033936 0.653076,-0.53125c0.291321,-0.39917 0.286438,-1.22052 0.093262,-1.5625c-0.193115,-0.34198 -0.360779,-0.429504 -0.466431,-0.5c-0.211365,-0.14093 -0.287903,-0.158081 -0.37323,-0.1875c-0.170532,-0.058838 -0.317749,-0.066284 -0.466431,-0.09375c-0.297363,-0.054932 -0.655334,-0.112305 -1.08844,-0.125c-8.637207,-0.252625 -21.576843,-3.297241 -31.128784,-7.46875l-2.954285,-1.28125c-0.214294,-0.097839 -0.449341,-0.140808 -0.684143,-0.125z" id="path3726" stroke-miterlimit="4" stroke-linejoin="round" stroke-width="0.294525" stroke="#ffffff" fill="#ff0000"/>
   </g>
   <g id="g3809">
    <path id="path2641" d="m175.358307,207.739044c0,0 5.599792,-1.505554 27.486969,15.796982c21.887161,17.302567 23.951935,58.347092 63.795624,53.779526c39.843689,-4.567566 44.707214,-70.875946 95.57901,-72.049713c50.871826,-1.173782 55.473785,64.84317 107.908264,67.354706c52.434448,2.511475 49.190674,-60.225616 101.82959,-57.308746c52.638855,2.91687 67.14917,51.92514 108.725952,68.976105c41.576721,17.050903 57.581116,-0.772339 57.581116,-0.772339" stroke-miterlimit="4" stroke-linejoin="round" stroke-width="5.254794" stroke="#000000" fill-rule="evenodd" fill-opacity="0" fill="#7f7f7f"/>
    <path id="path2629" d="m751.444519,254.394867c-25.594055,-0.817932 -56.0401,10.931 -79.621277,-8.5495c-32.386353,-20.0979 -50.078735,-54.718292 -94.370667,-62.923599c-34.111572,-6.404144 -49.093933,17.142532 -65.589783,30.931717c-13.521301,15.418884 -46.000732,22.742432 -71.921967,8.224548c-27.615448,-13.656006 -35.156403,-41.519669 -67.110046,-50.986191c-33.153809,-6.345581 -50.31424,15.206573 -65.024689,29.783234c-11.459534,12.79097 -35.482239,30.88063 -60.970779,15.947708c-25.48851,-14.932892 -26.992889,-44.68898 -47.713135,-63.876999c-20.720215,-19.188049 -63.561432,-30.557716 -85.4618,-22.303802c-21.900368,8.25386 -59.928741,16.864258 -57.671722,38.407791c-14.619514,12.64418 -52.627966,2.389481 -53.003597,4.602676l26.573642,8.262329c-6.81221,10.540573 -3.267349,6.02507 -15.97191,14.036636c17.437305,-2.508591 23.752813,-19.650253 47.907194,-21.973892c17.708828,0.317429 82.226658,7.431976 106.976963,29.951004c29.726013,25.249847 34.173157,63.265808 69.403275,82.278625c35.230148,19.012878 69.74086,4.641785 82.002975,-13.575317c12.262115,-18.217072 14.02066,-41.141083 42.503723,-47.134552c27.81604,-1.950989 42.036346,21.594055 55.694214,35.57547c14.448151,19.477051 49.109894,35.253235 75.499115,25.061157c33.223053,-10.845703 38.87851,-43.782867 77.04776,-49.733307c26.472595,-3.618591 48.422729,14.716125 59.944214,30.621246c12.072998,16.513123 33.569946,35.243896 61.379944,33.317078c30.925354,-1.357849 59.985413,-15.832336 64.772217,-37.39032c-0.10321,-2.901855 -1.103821,-6.572571 -5.273865,-8.553741zm-2.082031,2.853668c15.543762,8.260986 -7.682495,26.90448 -33.379761,35.33905c-19.757935,7.705322 -51.896484,5.762573 -67.234436,-11.534729c-18.106384,-17.4823 -31.073608,-43.99913 -65.091553,-47.933319c-37.265991,-4.051514 -52.658997,21.079285 -70.921692,36.755646c-13.13501,14.584229 -45.661865,22.816101 -69.924774,7.289063c-26.861664,-15.782776 -34.13208,-45.738129 -68.999329,-54.468903c-34.692017,-5.197037 -43.289703,20.492432 -52.295776,38.414459c-9.006134,17.922058 -35.209198,38.817078 -69.307358,27.553223c-34.098114,-11.263855 -43.305466,-39.90506 -56.686783,-61.080292c-21.811081,-34.514954 -43.277985,-42.902298 -81.37561,-49.12059c-46.834641,-4.473938 -54.023941,-8.092651 -53.779018,-16.85643c0.237892,-8.51149 28.512119,-20.836731 55.530933,-28.385681c27.018806,-7.548927 59.55323,2.955933 79.516136,21.632111c19.962875,18.676224 22.544403,49.260773 48.814011,64.507507c26.269592,15.246765 53.067505,-0.224976 65.333282,-13.767273c15.092773,-13.370392 27.967529,-34.880325 59.164886,-31.894272c28.781311,6.370789 37.298859,30.662781 58.037872,44.312592c23.538574,19.271744 65.749847,20.14296 83.386719,3.01503c18.4888,-12.216248 27.795013,-35.366959 58.602448,-35.75856c38.715332,2.67392 59.744446,31.160416 83.147949,50.472839c17.854309,17.054214 48.146545,31.098557 75.288452,24.084091c7.332458,-0.763062 16.143494,-3.683777 22.173401,-2.575562z" stroke-miterlimit="4" stroke-linejoin="round" stroke-width="5.254794" stroke="#000000" fill-rule="evenodd" fill="#ff0000"/>
    <path d="m123.643051,148.544861c-0.209793,1.766312 -2.846718,3.08519 -5.888962,2.94545c-3.042206,-0.13974 -5.337181,-1.685165 -5.125336,-3.45137c0.209824,-1.766296 2.846718,-3.085114 5.888901,-2.945374c3.042252,0.13974 5.337257,1.685089 5.125397,3.451294z" id="path2639" stroke-miterlimit="4" stroke-linejoin="round" stroke-width="1.271666" stroke="#000000" fill="#ff0000"/>
    <path id="path2643" d="m216.107803,238.491119l-14.868591,5.352478" stroke-miterlimit="4" stroke-linejoin="round" stroke-width="5.254794" stroke="#000000" fill-rule="evenodd" fill="#7f7f7f"/>
    <path id="path2645" d="m234.625458,266.917053l-10.453598,7.057068" stroke-miterlimit="4" stroke-linejoin="round" stroke-width="5.254794" stroke="#000000" fill-rule="evenodd" fill="#7f7f7f"/>
    <path id="path2647" d="m267.737,278.248352l6.774292,15.921753" stroke-miterlimit="4" stroke-linejoin="round" stroke-width="5.254794" stroke="#000000" fill-rule="evenodd" fill="#7f7f7f"/>
    <path id="path2649" d="m289.635101,265.684509l23.025696,12.067261" stroke-miterlimit="4" stroke-linejoin="round" stroke-width="5.254794" stroke="#000000" fill-rule="evenodd" fill="#7f7f7f"/>
    <path id="path2651" d="m308.062561,243.335297l21.559387,8.744812" stroke-miterlimit="4" stroke-linejoin="round" stroke-width="5.254794" stroke="#000000" fill-rule="evenodd" fill="#7f7f7f"/>
    <path id="path2653" d="m335.623413,213.799469l16.053925,11.928146" stroke-miterlimit="4" stroke-linejoin="round" stroke-width="5.254794" stroke="#000000" fill-rule="evenodd" fill="#7f7f7f"/>
    <path id="path2655" d="m398.020844,218.922333l-12.01944,10.172852" stroke-miterlimit="4" stroke-linejoin="round" stroke-width="5.254794" stroke="#000000" fill-rule="evenodd" fill="#7f7f7f"/>
    <path id="path2657" d="m427.32782,250.495636l-10.660797,5.402084" stroke-miterlimit="4" stroke-linejoin="round" stroke-width="5.254794" stroke="#000000" fill-rule="evenodd" fill="#7f7f7f"/>
    <path id="path2659" d="m464.096344,272.811218l-2.426636,13.021118" stroke-miterlimit="4" stroke-linejoin="round" stroke-width="5.254794" stroke="#000000" fill-rule="evenodd" fill="#7f7f7f"/>
    <path id="path2661" d="m504.950409,260.926575l12.483673,8.580872" stroke-miterlimit="4" stroke-linejoin="round" stroke-width="5.254794" stroke="#000000" fill-rule="evenodd" fill="#7f7f7f"/>
    <path id="path2663" d="m536.806458,227.051727l21.381287,11.709473" stroke-miterlimit="4" stroke-linejoin="round" stroke-width="5.254794" stroke="#000000" fill-rule="evenodd" fill="#7f7f7f"/>
    <path id="path2665" d="m600.325745,222.786896l-7.665527,13.415344" stroke-miterlimit="4" stroke-linejoin="round" stroke-width="5.254794" stroke="#000000" fill-rule="evenodd" fill="#7f7f7f"/>
    <path id="path2667" d="m642.628662,256.906677l-11.773682,6.927551" stroke-miterlimit="4" stroke-linejoin="round" stroke-width="5.254794" stroke="#000000" fill-rule="evenodd" fill="#7f7f7f"/>
    <path id="path2669" d="m675.582947,282.026611l-9.171997,12.086914" stroke-miterlimit="4" stroke-linejoin="round" stroke-width="5.254794" stroke="#000000" fill-rule="evenodd" fill="#7f7f7f"/>
   </g>
   <g id="g2357" transform="matrix(1.2439082562923431,0,0,-1.25,-1152.323569973996,181.51722) "/>
   <g id="g2425" transform="matrix(1.2439082562923431,0,0,-1.25,-1152.323569973996,181.51722) "/>
   <g id="g2513" transform="matrix(1.2439082562923431,0,0,-1.25,-1152.323569973996,181.51722) "/>
   <g id="g2577" transform="matrix(1.2439082562923431,0,0,-1.25,-1152.323569973996,181.51722) ">
    <path d="m492.225433,798.563354l311.800018,0" id="path2579" fill="#7f7f7f"/>
   </g>
   <g id="g2621" transform="matrix(1.2439082562923431,0,0,-1.25,-1152.323569973996,181.51722) ">
    <path d="m492.225433,798.563354l0,-552.699936" id="path2623" fill="#7f7f7f"/>
   </g>
   <g id="g2631" transform="matrix(1.2439082562923431,0,0,-1.25,-1152.323569973996,181.51722) ">
    <path d="m52.825417,807.363342l184.299995,0" id="path2633" fill="#7f7f7f"/>
   </g>
  </g>
 </g>
</svg>